HIERARCHY
ROOT hip
{
  OFFSET 5.51535 103.731 -2.80141
  CHANNELS 6 Xposition Yposition Zposition Zrotation Xrotation Yrotation
  JOINT abdomen
  {
    OFFSET 0 -1.186 -1.5018
    CHANNELS 6 Xposition Yposition Zposition Zrotation Xrotation Yrotation
    JOINT abdomen2
    {
      OFFSET 0 9.964 0.2134
      CHANNELS 6 Xposition Yposition Zposition Zrotation Xrotation Yrotation
      JOINT chest
      {
        OFFSET 0 13.134 -3.2573
        CHANNELS 6 Xposition Yposition Zposition Zrotation Xrotation Yrotation
        JOINT neck
        {
          OFFSET 0 20.686 -1.6905
          CHANNELS 6 Xposition Yposition Zposition Zrotation Xrotation Yrotation
          JOINT head
          {
            OFFSET 0 7.23801 -0.1237
            CHANNELS 6 Xposition Yposition Zposition Zrotation Xrotation Yrotation
            End Site
            {
              OFFSET 0 0 0
            }
          }
        }
        JOINT lCollar
        {
          OFFSET 1.7069 20.075 5.0056
          CHANNELS 6 Xposition Yposition Zposition Zrotation Xrotation Yrotation
          JOINT lShldr
          {
            OFFSET 13.6458 -0.0470195 -4.849
            CHANNELS 6 Xposition Yposition Zposition Zrotation Xrotation Yrotation
            JOINT lForeArm
            {
              OFFSET 28.3255 -0.97589 2.2888
              CHANNELS 6 Xposition Yposition Zposition Zrotation Xrotation Yrotation
              JOINT lHand
              {
                OFFSET 22.1583 -0.529998 10.8316
                CHANNELS 6 Xposition Yposition Zposition Zrotation Xrotation Yrotation
                JOINT lThumb1
                {
                  OFFSET 0.786 0.111997 2.5817
                  CHANNELS 6 Xposition Yposition Zposition Zrotation Xrotation Yrotation
                  JOINT lThumb2
                  {
                    OFFSET 0.360097 -0.877999 4.2331
                    CHANNELS 6 Xposition Yposition Zposition Zrotation Xrotation Yrotation
                    JOINT lThumb2_End
                    {
                      OFFSET 1.8127 -1.21601 2.2227
                      CHANNELS 6 Xposition Yposition Zposition Zrotation Xrotation Yrotation
                      End Site
                      {
                        OFFSET 0.0180981 -0.012195 0.0222007
                      }
                    }
                  }
                }
                JOINT lCarpal1
                {
                  OFFSET 0.9571 1.114 1.7695
                  CHANNELS 6 Xposition Yposition Zposition Zrotation Xrotation Yrotation
                  JOINT lIndex1
                  {
                    OFFSET 4.12461 0.486992 4.1451
                    CHANNELS 6 Xposition Yposition Zposition Zrotation Xrotation Yrotation
                    JOINT lIndex2
                    {
                      OFFSET 3.4052 -1.45401 2.7682
                      CHANNELS 6 Xposition Yposition Zposition Zrotation Xrotation Yrotation
                      JOINT lIndex2_End
                      {
                        OFFSET 1.45309 -1.79499 1.2713
                        CHANNELS 6 Xposition Yposition Zposition Zrotation Xrotation Yrotation
                        End Site
                        {
                          OFFSET 0.0144979 -0.0179083 0.0126995
                        }
                      }
                    }
                  }
                  JOINT lMid1
                  {
                    OFFSET 5.6954 0.209987 2.1184
                    CHANNELS 6 Xposition Yposition Zposition Zrotation Xrotation Yrotation
                    JOINT lMid2
                    {
                      OFFSET 3.9766 -1.53999 2.3863
                      CHANNELS 6 Xposition Yposition Zposition Zrotation Xrotation Yrotation
                      JOINT lMid2_End
                      {
                        OFFSET 1.4042 -1.926 1.125
                        CHANNELS 6 Xposition Yposition Zposition Zrotation Xrotation Yrotation
                        End Site
                        {
                          OFFSET 0.013999 -0.0193044 0.011301
                        }
                      }
                    }
                  }
                }
                JOINT lCarpal2
                {
                  OFFSET 2.0956 0.66 -0.3894
                  CHANNELS 6 Xposition Yposition Zposition Zrotation Xrotation Yrotation
                  JOINT lRing1
                  {
                    OFFSET 5.0395 -0.090013 2.4971
                    CHANNELS 6 Xposition Yposition Zposition Zrotation Xrotation Yrotation
                    JOINT lRing2
                    {
                      OFFSET 3.7921 -1.55199 1.4806
                      CHANNELS 6 Xposition Yposition Zposition Zrotation Xrotation Yrotation
                      JOINT lRing2_End
                      {
                        OFFSET 1.4655 -1.808 0.9609
                        CHANNELS 6 Xposition Yposition Zposition Zrotation Xrotation Yrotation
                        End Site
                        {
                          OFFSET 0.0147015 -0.0181014 0.00959957
                        }
                      }
                    }
                  }
                  JOINT lPinky1
                  {
                    OFFSET 4.9141 -1.269 0.3591
                    CHANNELS 6 Xposition Yposition Zposition Zrotation Xrotation Yrotation
                    JOINT lPinky2
                    {
                      OFFSET 3.1477 -1.685 0.8462
                      CHANNELS 6 Xposition Yposition Zposition Zrotation Xrotation Yrotation
                      JOINT lPinky2_End
                      {
                        OFFSET 0.805498 -1.58501 0.795499
                        CHANNELS 6 Xposition Yposition Zposition Zrotation Xrotation Yrotation
                        End Site
                        {
                          OFFSET 0.00809703 -0.0157944 0.00799848
                        }
                      }
                    }
                  }
                }
              }
            }
          }
        }
        JOINT rCollar
        {
          OFFSET -1.7069 20.075 5.0056
          CHANNELS 6 Xposition Yposition Zposition Zrotation Xrotation Yrotation
          JOINT rShldr
          {
            OFFSET -13.6458 -0.0470107 -4.849
            CHANNELS 6 Xposition Yposition Zposition Zrotation Xrotation Yrotation
            JOINT rForeArm
            {
              OFFSET -28.3255 -0.975895 2.2888
              CHANNELS 6 Xposition Yposition Zposition Zrotation Xrotation Yrotation
              JOINT rHand
              {
                OFFSET -22.1583 -0.530007 10.8316
                CHANNELS 6 Xposition Yposition Zposition Zrotation Xrotation Yrotation
                JOINT rThumb1
                {
                  OFFSET -0.785997 0.112005 2.5817
                  CHANNELS 6 Xposition Yposition Zposition Zrotation Xrotation Yrotation
                  JOINT rThumb2
                  {
                    OFFSET -0.360106 -0.877994 4.2331
                    CHANNELS 6 Xposition Yposition Zposition Zrotation Xrotation Yrotation
                    JOINT rThumb2_End
                    {
                      OFFSET -1.8127 -1.216 2.2227
                      CHANNELS 6 Xposition Yposition Zposition Zrotation Xrotation Yrotation
                      End Site
                      {
                        OFFSET -0.0180972 -0.0121973 0.0222005
                      }
                    }
                  }
                }
                JOINT rCarpal1
                {
                  OFFSET -0.9571 1.114 1.7695
                  CHANNELS 6 Xposition Yposition Zposition Zrotation Xrotation Yrotation
                  JOINT rIndex1
                  {
                    OFFSET -4.1246 0.487011 4.1451
                    CHANNELS 6 Xposition Yposition Zposition Zrotation Xrotation Yrotation
                    JOINT rIndex2
                    {
                      OFFSET -3.4052 -1.45401 2.7682
                      CHANNELS 6 Xposition Yposition Zposition Zrotation Xrotation Yrotation
                      JOINT rIndex2_End
                      {
                        OFFSET -1.4531 -1.795 1.2713
                        CHANNELS 6 Xposition Yposition Zposition Zrotation Xrotation Yrotation
                        End Site
                        {
                          OFFSET -0.0145077 -0.0180048 0.0127017
                        }
                      }
                    }
                  }
                  JOINT rMid1
                  {
                    OFFSET -5.6954 0.210002 2.1184
                    CHANNELS 6 Xposition Yposition Zposition Zrotation Xrotation Yrotation
                    JOINT rMid2
                    {
                      OFFSET -3.9766 -1.54 2.3863
                      CHANNELS 6 Xposition Yposition Zposition Zrotation Xrotation Yrotation
                      JOINT rMid2_End
                      {
                        OFFSET -1.4042 -1.926 1.125
                        CHANNELS 6 Xposition Yposition Zposition Zrotation Xrotation Yrotation
                        End Site
                        {
                          OFFSET -0.0139948 -0.0192916 0.0112994
                        }
                      }
                    }
                  }
                }
                JOINT rCarpal2
                {
                  OFFSET -2.0956 0.66 -0.3894
                  CHANNELS 6 Xposition Yposition Zposition Zrotation Xrotation Yrotation
                  JOINT rRing1
                  {
                    OFFSET -5.03951 -0.0899879 2.4971
                    CHANNELS 6 Xposition Yposition Zposition Zrotation Xrotation Yrotation
                    JOINT rRing2
                    {
                      OFFSET -3.7921 -1.55201 1.4806
                      CHANNELS 6 Xposition Yposition Zposition Zrotation Xrotation Yrotation
                      JOINT rRing2_End
                      {
                        OFFSET -1.4655 -1.808 0.960901
                        CHANNELS 6 Xposition Yposition Zposition Zrotation Xrotation Yrotation
                        End Site
                        {
                          OFFSET -0.0146934 -0.0180999 0.00959832
                        }
                      }
                    }
                  }
                  JOINT rPinky1
                  {
                    OFFSET -4.91411 -1.26899 0.359202
                    CHANNELS 6 Xposition Yposition Zposition Zrotation Xrotation Yrotation
                    JOINT rPinky2
                    {
                      OFFSET -3.14769 -1.68501 0.846199
                      CHANNELS 6 Xposition Yposition Zposition Zrotation Xrotation Yrotation
                      JOINT rPinky2_End
                      {
                        OFFSET -0.805498 -1.585 0.7955
                        CHANNELS 6 Xposition Yposition Zposition Zrotation Xrotation Yrotation
                        End Site
                        {
                          OFFSET -0.00810035 -0.0158035 0.00800029
                        }
                      }
                    }
                  }
                }
              }
            }
          }
        }
      }
    }
  }
  JOINT lThigh
  {
    OFFSET 8.367 -8.2066 0.5982
    CHANNELS 6 Xposition Yposition Zposition Zrotation Xrotation Yrotation
    JOINT lShin
    {
      OFFSET 2.1923 -43.463 -0.4932
      CHANNELS 6 Xposition Yposition Zposition Zrotation Xrotation Yrotation
      JOINT lFoot
      {
        OFFSET 0.733301 -45.8593 -2.6451
        CHANNELS 6 Xposition Yposition Zposition Zrotation Xrotation Yrotation
        End Site
        {
          OFFSET 2.6618 -4.2699 12.3931
        }
      }
    }
  }
  JOINT rThigh
  {
    OFFSET -8.367 -8.2066 0.5982
    CHANNELS 6 Xposition Yposition Zposition Zrotation Xrotation Yrotation
    JOINT rShin
    {
      OFFSET -2.1923 -43.463 -0.4931
      CHANNELS 6 Xposition Yposition Zposition Zrotation Xrotation Yrotation
      JOINT rFoot
      {
        OFFSET -0.733299 -45.8593 -2.6451
        CHANNELS 6 Xposition Yposition Zposition Zrotation Xrotation Yrotation
        End Site
        {
          OFFSET -2.6618 -4.2699 12.3931
        }
      }
    }
  }
}
MOTION
Frames:	4
Frame Time:	0.0333333
-30.5519 17.8363 70.3932 10.1807 -64.7109 21.1565 4.35611e-007 -1.186 -1.5018 -0.117306 -7.04082 0.342207 6.0137e-007 9.964 0.2134 -0.194107 -14.0822 0.677528 -1.30303e-006 13.134 -3.2573 -0.194107 -14.0822 0.677529 -7.61286e-007 20.686 -1.6905 0.37452 -0.655506 -5.68352 -1.27801e-007 7.23802 -0.123701 17.7696 4.87546 -1.5682 1.7069 20.075 5.0056 5.16431 -1.47314 -15.364 13.6458 -0.0470135 -4.849 -57.9932 -3.09677 -55.9543 28.3255 -0.975894 2.2888 -24.1512 -24.1343 -76.2366 22.1583 -0.529997 10.8316 -3.81317 23.6714 -28.7031 0.786003 0.111996 2.5817 29.0016 36.8209 -34.7961 0.360098 -0.878 4.2331 -6.33697 -0.117378 -11.5743 1.8127 -1.21601 2.2227 6.48489 1.4842 12.0602 0.9571 1.114 1.7695 6.36111e-015 -2.78299e-015 -4.77083e-015 4.1246 0.486992 4.1451 -4.88734 4.53876 12.6179 3.4052 -1.45401 2.7682 -36.3636 10.0331 17.8992 1.4531 -1.79499 1.2713 -37.4308 10.1383 18.4811 5.6954 0.209986 2.1184 -1.58701 -0.577019 1.61798 3.9766 -1.53999 2.3863 -43.8285 12.1761 22.7531 1.4042 -1.926 1.125 -9.03146 4.06782 4.02301 2.0956 0.66 -0.3894 6.36111e-015 -2.78299e-015 -4.77083e-015 5.0395 -0.0900128 2.4971 -8.4409 -1.9482 5.79524 3.7921 -1.55199 1.4806 -14.2679 6.48288 7.41466 1.4655 -1.808 0.960901 -15.7291 7.01804 8.23488 4.9141 -1.269 0.3591 10.4038 -12.5936 2.33173 3.1477 -1.685 0.846199 -18.2187 8.51738 9.60865 0.805498 -1.58501 0.795501 -8.80553 4.59364 4.3982 -1.7069 20.075 5.0056 -21.1026 -0.0894713 -2.50509 -13.6458 -0.0470118 -4.849 57.9196 -4.34351 76.8628 -28.3255 -0.975882 2.2888 -0.414893 -3.15036 33.9569 -22.1583 -0.53001 10.8316 4.67486 -8.63461 37.7933 -0.786 0.112005 2.5817 -23.2934 46.7513 30.678 -0.360105 -0.877993 4.2331 4.57599 -3.14007 12.9017 -1.81269 -1.216 2.2227 -7.05391 9.98964 -27.8099 -0.9571 1.114 1.7695 -3.18055e-015 3.18055e-015 -1.59028e-015 -4.1246 0.487012 4.1451 22.4325 7.18756 -14.4624 -3.4052 -1.45401 2.7682 39.327 10.0708 -9.22205 -1.4531 -1.795 1.2713 40.1701 10.2034 -9.48227 -5.6954 0.210001 2.1184 6.18727 0.992247 -2.02836 -3.9766 -1.54 2.3863 51.3578 13.422 -13.763 -1.4042 -1.926 1.125 14.2807 5.03453 -2.58717 -2.0956 0.66 -0.3894 -3.18055e-015 3.18055e-015 -1.59028e-015 -5.03951 -0.0899877 2.4971 13.5939 -0.61931 -5.16265 -3.7921 -1.55201 1.4806 20.0872 7.41466 -4.9154 -1.4655 -1.808 0.960902 21.6807 7.90918 -5.40322 -4.91411 -1.26899 0.359202 -10.8188 -10.1308 -6.16945 -3.1477 -1.68501 0.846198 20.7191 8.26831 -4.9613 -0.805499 -1.585 0.795501 10.5212 4.46528 -2.16974 8.367 -8.2066 0.598199 36.3651 -37.0083 15.594 2.19231 -43.463 -0.493203 -0.0251742 22.9545 -0.372318 0.733303 -45.8593 -2.6451 -9.35681 13.8791 -14.997 -8.367 -8.2066 0.598203 -26.7428 -13.7714 -7.42107 -2.1923 -43.463 -0.493116 0.650885 -0.64764 4.47451 -0.733293 -45.8593 -2.6451 12.3664 17.8518 -2.22814 
-30.511 17.8116 70.4076 9.79384 -65.1717 20.7762 -2.86408e-007 -1.186 -1.5018 -0.0304275 -7.08546 0.362007 -5.75358e-007 9.964 0.213402 -0.015526 -14.1711 0.728636 4.40963e-007 13.134 -3.2573 -0.0155297 -14.1711 0.728637 1.28607e-006 20.686 -1.6905 0.700839 -0.313838 -5.2937 2.10185e-006 7.23801 -0.123703 18.2697 5.34022 -1.31837 1.7069 20.075 5.0056 5.23948 -1.47578 -15.4174 13.6458 -0.0470118 -4.849 -57.7938 -3.18841 -55.89 28.3255 -0.975882 2.28879 -24.1565 -23.9579 -76.224 22.1583 -0.529989 10.8316 -2.71496 23.7779 -29.2094 0.786004 0.111996 2.5817 28.2993 36.1926 -34.2933 0.360097 -0.878 4.2331 -6.2304 -0.126007 -11.3794 1.8127 -1.21601 2.2227 6.32074 1.42849 11.7489 0.9571 1.114 1.7695 3.18055e-015 1.19271e-015 3.18055e-015 4.1246 0.486993 4.1451 -4.58233 4.33963 12.1871 3.4052 -1.45401 2.7682 -35.4938 9.93923 17.4262 1.4531 -1.79499 1.2713 -36.5155 10.0486 17.9821 5.6954 0.209987 2.1184 -1.33577 -0.681256 1.49409 3.9766 -1.53999 2.3863 -42.7902 12.1092 22.1553 1.4042 -1.926 1.125 -8.6413 3.90824 3.839 2.0956 0.66 -0.3894 3.18055e-015 1.19271e-015 3.18055e-015 5.0395 -0.0900121 2.4971 -8.0859 -2.01299 5.57725 3.7921 -1.55199 1.4806 -13.7847 6.30071 7.14559 1.4655 -1.808 0.960898 -15.2182 6.8338 7.94705 4.9141 -1.269 0.359102 10.5607 -12.4597 2.37245 3.1477 -1.685 0.846202 -17.6601 8.31334 9.28749 0.805498 -1.58501 0.7955 -8.42661 4.41414 4.19844 -1.7069 20.075 5.0056 -21.0547 -0.120139 -2.24445 -13.6458 -0.0470119 -4.849 58.0266 -4.10698 76.8416 -28.3255 -0.975892 2.2888 -1.05906 -2.69323 32.6314 -22.1583 -0.53 10.8316 5.11788 -8.99673 38.5807 -0.786001 0.112004 2.5817 -23.2934 46.7513 30.6779 -0.360103 -0.877993 4.2331 4.57606 -3.1401 12.9019 -1.8127 -1.216 2.2227 -7.0539 9.98965 -27.8099 -0.9571 1.114 1.7695 0 0 -0 -4.1246 0.487012 4.1451 22.4326 7.18757 -14.4624 -3.4052 -1.45401 2.7682 39.327 10.0708 -9.22204 -1.4531 -1.795 1.2713 40.1701 10.2034 -9.48228 -5.6954 0.210001 2.1184 6.18728 0.992247 -2.02836 -3.9766 -1.54 2.3863 51.3578 13.422 -13.763 -1.4042 -1.926 1.125 14.2807 5.03451 -2.58717 -2.0956 0.66 -0.3894 0 0 -0 -5.03951 -0.0899875 2.4971 13.5939 -0.619301 -5.16265 -3.7921 -1.552 1.4806 20.0872 7.41465 -4.91539 -1.4655 -1.808 0.960901 21.6807 7.90918 -5.40322 -4.91411 -1.26899 0.359201 -10.8187 -10.1308 -6.16944 -3.14769 -1.68501 0.846199 20.7191 8.26828 -4.96131 -0.8055 -1.585 0.795499 10.5212 4.46527 -2.16974 8.36699 -8.20659 0.5982 36.2775 -36.9934 15.9617 2.19231 -43.463 -0.493208 -0.0334128 23.18 -0.370648 0.73331 -45.8593 -2.64511 -9.25186 13.815 -15.0072 -8.36699 -8.20659 0.598202 -26.4224 -13.8475 -7.06608 -2.1923 -43.463 -0.493096 0.650545 -0.654366 4.46989 -0.733305 -45.8593 -2.6451 12.3242 17.8538 -2.19025 
-30.4149 17.7668 70.4778 9.38216 -65.6113 20.3525 1.56623e-007 -1.186 -1.5018 0.0578218 -7.13204 0.386934 4.28618e-007 9.964 0.213401 0.166579 -14.2635 0.79048 3.09428e-007 13.134 -3.2573 0.166576 -14.2635 0.790476 -2.77018e-006 20.686 -1.69052 0.83605 0.0710783 -4.8972 -1.10413e-006 7.23801 -0.1237 18.9617 5.78558 -1.07871 1.7069 20.075 5.0056 5.44029 -1.48236 -15.5523 13.6458 -0.0470137 -4.849 -57.2494 -3.45278 -55.695 28.3255 -0.975886 2.2888 -24.1848 -23.4742 -76.2049 22.1583 -0.529985 10.8316 0.0516942 23.9047 -30.5496 0.786004 0.111996 2.5817 26.3663 34.4251 -32.9817 0.360097 -0.878 4.2331 -5.93357 -0.148125 -10.837 1.8127 -1.21601 2.2227 5.86228 1.27812 10.8817 0.9571 1.114 1.7695 0 3.18055e-015 -0 4.1246 0.486992 4.1451 -3.73786 3.78434 10.9912 3.4052 -1.45401 2.7682 -33.0785 9.64099 16.1186 1.4531 -1.79499 1.2713 -33.9739 9.75796 16.6025 5.6954 0.209987 2.1184 -0.636982 -0.973605 1.15183 3.9766 -1.53999 2.3863 -39.9055 11.8674 20.4997 1.4042 -1.926 1.125 -7.55826 3.45749 3.33269 2.0956 0.66 -0.3894 0 3.18055e-015 -0 5.0395 -0.0900126 2.4971 -7.09711 -2.19958 4.97503 3.7921 -1.55199 1.4806 -12.4452 5.78187 6.40529 1.4655 -1.808 0.960899 -13.803 6.29821 7.15237 4.9141 -1.269 0.359102 10.9954 -12.0855 2.48476 3.1477 -1.685 0.846202 -16.1128 7.72922 8.40506 0.805498 -1.58501 0.795501 -7.37026 3.89554 3.64308 -1.7069 20.075 5.0056 -20.9227 -0.199269 -1.55343 -13.6458 -0.0470113 -4.849 58.1642 -4.05441 76.2803 -28.3255 -0.975883 2.2888 -1.2381 -2.92542 32.1052 -22.1583 -0.530006 10.8316 5.26109 -8.50344 38.7785 -0.786 0.112006 2.5817 -23.2934 46.7513 30.6779 -0.360107 -0.877992 4.2331 4.57612 -3.14014 12.9021 -1.81269 -1.216 2.2227 -7.05391 9.98964 -27.8099 -0.9571 1.114 1.7695 6.36111e-015 -1.59028e-015 1.59028e-015 -4.12461 0.487011 4.1451 22.4325 7.18757 -14.4624 -3.4052 -1.45401 2.7682 39.327 10.0708 -9.22205 -1.4531 -1.795 1.2713 40.1701 10.2034 -9.48226 -5.69541 0.210001 2.1184 6.18725 0.992247 -2.02837 -3.9766 -1.54 2.3863 51.3578 13.422 -13.763 -1.4042 -1.926 1.125 14.2807 5.03451 -2.58717 -2.0956 0.66 -0.3894 6.36111e-015 -1.59028e-015 1.59028e-015 -5.03951 -0.0899857 2.4971 13.5939 -0.619317 -5.16265 -3.7921 -1.55201 1.4806 20.0871 7.41466 -4.91539 -1.4655 -1.808 0.9609 21.6807 7.90919 -5.40322 -4.91411 -1.26899 0.359201 -10.8188 -10.1308 -6.16945 -3.1477 -1.68501 0.846198 20.7191 8.2683 -4.96129 -0.805501 -1.585 0.795498 10.5212 4.46527 -2.16975 8.367 -8.20659 0.598203 36.0464 -36.9828 16.926 2.1923 -43.463 -0.493193 -0.0581275 23.819 -0.365787 0.733314 -45.8593 -2.64512 -8.97536 13.6439 -15.0253 -8.367 -8.20659 0.598208 -25.5587 -14.0502 -6.11981 -2.1923 -43.463 -0.493106 0.654767 -0.642309 4.45409 -0.733303 -45.8593 -2.64511 12.209 17.8564 -2.08393 
-30.2743 17.7041 70.5871 8.93001 -66.041 19.8821 1.07951e-006 -1.18599 -1.5018 0.14857 -7.17842 0.413127 1.23517e-007 9.964 0.2134 0.354011 -14.3556 0.855403 -1.12981e-006 13.134 -3.2573 0.354009 -14.3556 0.855398 -1.01393e-006 20.686 -1.6905 0.842687 0.50929 -4.48638 4.15301e-006 7.23802 -0.123696 19.7933 6.18201 -0.846435 1.7069 20.075 5.0056 5.72948 -1.49057 -15.7307 13.6458 -0.0470131 -4.849 -56.4398 -3.87315 -55.3636 28.3255 -0.975891 2.28879 -24.2545 -22.7518 -76.2062 22.1583 -0.529981 10.8316 3.67484 23.7569 -32.4215 0.786004 0.111996 2.5817 23.4661 31.6899 -31.2207 0.360098 -0.878001 4.2331 -5.48076 -0.176431 -10.0098 1.8127 -1.21601 2.2227 5.15927 1.06233 9.55767 0.9571 1.114 1.7695 -3.35784e-031 -4.72114e-015 -4.07509e-015 4.1246 0.486993 4.1451 -2.46368 2.93511 9.17705 3.4052 -1.454 2.7682 -29.4162 9.08292 14.1553 1.4531 -1.79499 1.2713 -30.1199 9.20002 14.5307 5.6954 0.209988 2.1184 0.42598 -1.42568 0.637787 3.9766 -1.53999 2.3863 -35.5313 11.3432 18.0089 1.4042 -1.926 1.125 -5.91612 2.75228 2.57801 2.0956 0.66 -0.3894 -3.35784e-031 -4.72114e-015 -4.07509e-015 5.0395 -0.0900128 2.4971 -5.58882 -2.50156 4.07069 3.7921 -1.55199 1.4806 -10.4188 4.95839 5.30208 1.4655 -1.808 0.960901 -11.6603 5.46882 5.9756 4.9141 -1.269 0.359103 11.6525 -11.5109 2.65328 3.1477 -1.685 0.846202 -13.7713 6.80557 7.09733 0.805499 -1.58501 0.795499 -5.78413 3.11638 2.83009 -1.7069 20.075 5.0056 -20.7241 -0.306276 -0.567841 -13.6458 -0.0470124 -4.849 58.3043 -4.14995 75.3246 -28.3255 -0.975877 2.2888 -1.10298 -3.63819 32.1843 -22.1583 -0.530007 10.8316 5.15959 -7.48464 38.5467 -0.785999 0.112006 2.5817 -23.2934 46.7513 30.6779 -0.360106 -0.877994 4.2331 4.5762 -3.14017 12.9023 -1.8127 -1.216 2.2227 -7.05391 9.98964 -27.8099 -0.9571 1.114 1.7695 -3.18055e-015 4.77083e-015 -0 -4.12461 0.487011 4.1451 22.4326 7.18757 -14.4624 -3.4052 -1.45401 2.7682 39.327 10.0708 -9.22206 -1.4531 -1.795 1.2713 40.1701 10.2034 -9.48227 -5.6954 0.210002 2.1184 6.18727 0.992249 -2.02836 -3.9766 -1.54 2.3863 51.3578 13.422 -13.763 -1.4042 -1.926 1.125 14.2807 5.03453 -2.58716 -2.0956 0.66 -0.3894 -3.18055e-015 4.77083e-015 -0 -5.03951 -0.0899862 2.4971 13.5939 -0.619297 -5.16264 -3.7921 -1.552 1.4806 20.0871 7.4147 -4.91537 -1.4655 -1.808 0.960903 21.6807 7.90918 -5.40321 -4.91411 -1.26899 0.359204 -10.8188 -10.1308 -6.16943 -3.1477 -1.68501 0.8462 20.7191 8.26833 -4.96128 -0.8055 -1.585 0.7955 10.5212 4.46527 -2.16974 8.367 -8.20659 0.598201 35.7199 -37.0123 18.2799 2.19231 -43.463 -0.493193 -0.100742 24.8002 -0.357679 0.733304 -45.8593 -2.6451 -8.58476 13.3959 -15.0322 -8.367 -8.2066 0.598208 -24.2936 -14.3288 -4.76061 -2.1923 -43.463 -0.493096 0.671345 -0.579572 4.42377 -0.733305 -45.8593 -2.6451 12.038 17.864 -1.92146 
